<svg xmlns="http://www.w3.org/2000/svg" viewBox="0 0 900 300"><title>Asset 109</title><g id="a605fa0a-aa88-44d2-9478-0f462a5eadb9" data-name="Layer 2"><g id="b0907480-13de-4799-ab2e-55d0ee976440" data-name="Layer 4"><rect width="900" height="300" rx="150" style="fill:#e86b93"/><line x1="86.47" y1="155.29" x2="900" y2="155.29" style="fill:#f8f8f9;stroke:#2b2d42;stroke-miterlimit:10;stroke-width:7.058823353699263px"/><path d="M132,70.31l84.87,138.86H209l-32.14-51.71H86.07L54.39,209.17h-7Zm-.68,12.48L89,152.22h85.1Z" style="fill:#2b2d42"/><path d="M320.87,131.07q9.61-5.25,23.42-5.25a38.75,38.75,0,0,1,24.22,8q10.39,8,10.41,21.51v53.88h-7.25V155.29q0-10.48-8.59-17.44a31.91,31.91,0,0,0-20.71-7,34.3,34.3,0,0,0-21.5,7.24q-9.39,7.23-9.39,16.81v54.24h-7.24V154.93q0-9.77-8.61-16.9t-20.82-7.15a33.07,33.07,0,0,0-21.27,7.24q-9.06,7.23-9,16.81v54.24h-7.24V127.81h7.24V139.2q4.51-5.41,13.46-9.4a45.23,45.23,0,0,1,18.56-4A35.16,35.16,0,0,1,295,131.16,32.42,32.42,0,0,1,307.86,145Q311.25,136.3,320.87,131.07Z" style="fill:#2b2d42"/><path d="M412.63,108.1c-4.37,0-6.56-1.62-6.56-4.88s2.19-4.88,6.56-4.88,6.57,1.63,6.57,4.88S417,108.1,412.63,108.1ZM416.26,128v81.18H409V128Z" style="fill:#2b2d42"/><path d="M482.79,205.2v5.06q-16.07,0-27.38-8.59t-11.32-22V95.08h7.24V128h31.23v5.06H451.33V179.7q0,11,9.17,18.26T482.79,205.2Z" style="fill:#2b2d42"/><path d="M582.82,127.81h7.24v78.83q0,16.1-14,27.31t-34.4,11.21q-24.43,0-38.7-15l.45-9A45.39,45.39,0,0,0,520,234.94a47.7,47.7,0,0,0,21.61,5.15q16.74,0,29-9.67t12.22-23.23V193.44q-11.09,17.73-38.7,17.72-18.78,0-32.14-10.57t-13.35-25.41V127.81h7.24v47.37q0,12.48,11.43,21.7t27.05,9.22q15.61,0,27-9.22t11.43-21.7Z" style="fill:#2b2d42"/></g></g></svg>